<svg 
          width="19.99997901916504" 
          height="24.375" fill="none" 
          xmlns="http://www.w3.org/2000/svg">
          <path d="M 9.99998950958252 24.375 C 11.374988096952407 24.375 12.49998688697815 23.250000029802322 12.49998688697815 21.875 L 7.49999213218689 21.875 C 7.49999213218689 23.250000029802322 8.624990922212632 24.375 9.99998950958252 24.375 Z M 17.49998164176941 16.875 L 17.49998164176941 10.625 C 17.49998164176941 6.787500083446503 15.462483636140973 3.5749997943639755 11.874987542629242 2.724999785423279 L 11.874987542629242 1.875 C 11.874987542629242 0.8375000208616257 11.037488400340102 0 9.99998950958252 0 C 8.962490618824937 0 8.124991476535797 0.8375000208616257 8.124991476535797 1.875 L 8.124991476535797 2.724999785423279 C 4.549995357990127 3.5749997943639755 2.49999737739563 6.775000095367432 2.49999737739563 10.625 L 2.49999737739563 16.875 L 0 19.375 L 0 20.625 L 19.99997901916504 20.625 L 19.99997901916504 19.375 L 17.49998164176941 16.875 Z M 14.99998426437378 18.125 L 4.99999475479126 18.125 L 4.99999475479126 10.625 C 4.99999475479126 7.524999976158142 6.887492762804044 5 9.99998950958252 5 C 13.112486256360995 5 14.99998426437378 7.524999976158142 14.99998426437378 10.625 L 14.99998426437378 18.125 Z" fill="rgb(91.00000217556953,104.00000140070915,154.00000602006912)"/>
        </svg>